<?xml version="1.0" encoding="UTF-8" standalone="no"?>
<!DOCTYPE svg PUBLIC "-//W3C//DTD SVG 1.1//EN" "http://www.w3.org/Graphics/SVG/1.1/DTD/svg11.dtd">
<svg width="100%" height="100%" viewBox="0 0 485 485" version="1.1" xmlns="http://www.w3.org/2000/svg" xmlns:xlink="http://www.w3.org/1999/xlink" xml:space="preserve" xmlns:serif="http://www.serif.com/" style="fill-rule:evenodd;clip-rule:evenodd;stroke-linejoin:round;stroke-miterlimit:2;">
    <g>
        <path d="M467.844,350.3C447.544,329.8 427.244,309.6 407.544,290.1C396.844,279.5 384.344,273.9 371.244,273.9C358.144,273.9 345.644,279.5 335.044,290L332.344,292.7C321.644,303.3 310.544,314.3 299.844,325.3C297.644,324.2 295.444,323.1 293.344,322C288.444,319.6 283.744,317.3 279.644,314.7C247.444,294.5 217.844,267.6 189.244,232.3C175.344,215.2 165.644,200 158.844,184.6C168.344,175.4 177.644,166 186.744,156.8C189.044,154.5 191.444,152.1 193.744,149.8C216.044,127.4 215.944,98.4 193.644,75.9C186.844,69 179.844,62.1 173.144,55.4L154.644,36.9C147.844,30 140.744,22.9 133.644,16C122.944,5.5 110.344,0 97.344,0C84.344,0 71.744,5.5 61.144,16C56.044,21.1 50.844,26.2 45.944,31.2C38.744,38.5 31.244,46 23.744,53.2C9.744,66.5 1.944,83.3 0.444,103.2C-1.856,134.5 6.844,162.8 14.644,184C32.444,231.9 59.644,277.3 97.844,322.8C145.444,379.4 202.744,424.2 268.144,456.1C304.144,473.6 335.044,482.5 365.144,484.2C367.344,484.3 369.544,484.4 371.644,484.4C397.044,484.4 417.944,475.4 433.744,457.8C440.544,450.2 447.844,443.1 455.544,435.6C459.444,431.8 463.444,427.9 467.444,423.9C489.844,401.4 489.944,372.6 467.844,350.3ZM448.444,404.9C444.644,408.7 440.744,412.5 436.944,416.3C429.244,423.8 421.244,431.6 413.844,439.9C402.144,453 387.344,458.5 366.844,457.4C340.344,455.9 312.844,447.9 280.144,432C218.144,401.8 163.744,359.3 118.644,305.7C82.444,262.6 56.744,219.9 40.044,174.9C29.744,147.3 25.944,125.9 27.444,105.6C28.444,92.5 33.344,81.8 42.444,73.2C50.144,65.5 57.744,57.8 65.144,50.4C70.044,45.5 75.044,40.4 80.044,35.4C83.844,31.6 89.944,27.1 97.344,27.1C104.744,27.1 110.844,31.6 114.744,35.4C121.644,42.2 128.744,49.3 135.444,56.1C138.644,59.3 141.744,62.5 144.944,65.6L174.344,95C186.344,107.1 186.444,118.8 174.444,130.8C172.144,133.2 169.744,135.5 167.444,137.9C157.744,147.7 147.644,157.9 137.544,167.6C132.544,172.4 127.644,180.6 132.544,192.4C140.344,211.1 151.644,229.3 168.044,249.5C198.544,287 230.344,315.9 265.044,337.7C270.444,341.1 275.944,343.8 281.244,346.4C284.444,347.9 287.344,349.4 290.244,351C293.844,353 297.444,353.9 301.044,353.9C306.744,353.9 312.044,351.4 316.744,346.6C328.044,334.9 339.844,323.3 351.144,312L353.844,309.3C357.644,305.5 363.744,301 371.044,301C378.344,301 384.444,305.5 388.344,309.3C407.944,328.8 428.244,349 448.444,369.4C460.144,380.9 460.044,393.2 448.444,404.9Z" style="fill:white;fill-rule:nonzero;stroke:white;stroke-width:1px;"/>
    </g>
</svg>
