<?xml version="1.0" encoding="UTF-8" standalone="no"?>
<!DOCTYPE svg PUBLIC "-//W3C//DTD SVG 1.1//EN" "http://www.w3.org/Graphics/SVG/1.1/DTD/svg11.dtd">
<svg width="100%" height="100%" viewBox="0 0 489 489" version="1.1" xmlns="http://www.w3.org/2000/svg" xmlns:xlink="http://www.w3.org/1999/xlink" xml:space="preserve" xmlns:serif="http://www.serif.com/" style="fill-rule:evenodd;clip-rule:evenodd;stroke-linejoin:round;stroke-miterlimit:2;">
    <g>
        <g>
            <path d="M417.4,71.6C371.2,25.4 309.8,0 244.5,0C179.2,0 117.8,25.4 71.6,71.6C25.4,117.8 0,179.2 0,244.5C0,309.8 25.4,371.2 71.6,417.4C117.8,463.6 179.2,489 244.5,489C309.8,489 371.2,463.6 417.4,417.4C463.6,371.2 489,309.8 489,244.5C489,179.2 463.6,117.8 417.4,71.6ZM244.5,462C124.6,462 27,364.4 27,244.5C27,124.6 124.6,27 244.5,27C364.4,27 462,124.6 462,244.5C462,364.4 364.4,462 244.5,462Z" style="fill:white;fill-rule:nonzero;"/>
            <path d="M244.5,203.2C279.6,203.2 308.1,174.6 308.1,139.6C308.1,104.6 279.6,75.9 244.5,75.9C209.4,75.9 180.9,104.5 180.9,139.5C180.9,174.5 209.4,203.2 244.5,203.2ZM244.5,102.9C264.7,102.9 281.1,119.3 281.1,139.5C281.1,159.7 264.7,176.1 244.5,176.1C224.3,176.1 207.9,159.7 207.9,139.5C207.9,119.3 224.3,102.9 244.5,102.9Z" style="fill:white;fill-rule:nonzero;"/>
            <path d="M340.9,280.5C318.6,247.7 286.2,231 244.5,231C202.8,231 170.4,247.6 148.1,280.5C131.5,304.9 120.9,338.2 116.7,379.2C115.9,386.6 121.3,393.3 128.7,394C136.1,394.8 142.8,389.4 143.5,382C152,299.7 186,258 244.5,258C303,258 337,299.7 345.5,382C346.2,388.9 352.1,394.1 358.9,394.1C359.4,394.1 359.8,394.1 360.3,394C367.7,393.2 373.1,386.6 372.3,379.2C368.1,338.1 357.5,304.9 340.9,280.5Z" style="fill:white;fill-rule:nonzero;"/>
        </g>
    </g>
</svg>
